<mxfile host="65bd71144e">
    <diagram id="ePR4c9LgIGpAbqc5E_Jy" name="Page-1">
        <mxGraphModel dx="560" dy="268" grid="0" gridSize="10" guides="1" tooltips="1" connect="1" arrows="1" fold="1" page="1" pageScale="1" pageWidth="850" pageHeight="1100" math="0" shadow="0">
            <root>
                <mxCell id="0"/>
                <mxCell id="1" parent="0"/>
                <mxCell id="2" value="Employee" style="swimlane;fontStyle=0;childLayout=stackLayout;horizontal=1;startSize=30;horizontalStack=0;resizeParent=1;resizeParentMax=0;resizeLast=0;collapsible=1;marginBottom=0;whiteSpace=wrap;html=1;" vertex="1" parent="1">
                    <mxGeometry x="49" y="115" width="276" height="171" as="geometry"/>
                </mxCell>
                <mxCell id="3" value="Name: String" style="text;strokeColor=none;fillColor=none;align=left;verticalAlign=middle;spacingLeft=4;spacingRight=4;overflow=hidden;points=[[0,0.5],[1,0.5]];portConstraint=eastwest;rotatable=0;whiteSpace=wrap;html=1;" vertex="1" parent="2">
                    <mxGeometry y="30" width="276" height="30" as="geometry"/>
                </mxCell>
                <mxCell id="4" value="Email: String" style="text;strokeColor=none;fillColor=none;align=left;verticalAlign=middle;spacingLeft=4;spacingRight=4;overflow=hidden;points=[[0,0.5],[1,0.5]];portConstraint=eastwest;rotatable=0;whiteSpace=wrap;html=1;" vertex="1" parent="2">
                    <mxGeometry y="60" width="276" height="30" as="geometry"/>
                </mxCell>
                <mxCell id="5" value="Password: String" style="text;strokeColor=none;fillColor=none;align=left;verticalAlign=middle;spacingLeft=4;spacingRight=4;overflow=hidden;points=[[0,0.5],[1,0.5]];portConstraint=eastwest;rotatable=0;whiteSpace=wrap;html=1;" vertex="1" parent="2">
                    <mxGeometry y="90" width="276" height="27" as="geometry"/>
                </mxCell>
                <mxCell id="6" value="Manager: Boolean" style="text;strokeColor=none;fillColor=none;align=left;verticalAlign=middle;spacingLeft=4;spacingRight=4;overflow=hidden;points=[[0,0.5],[1,0.5]];portConstraint=eastwest;rotatable=0;whiteSpace=wrap;html=1;" vertex="1" parent="2">
                    <mxGeometry y="117" width="276" height="27" as="geometry"/>
                </mxCell>
                <mxCell id="7" value="Role: String" style="text;strokeColor=none;fillColor=none;align=left;verticalAlign=middle;spacingLeft=4;spacingRight=4;overflow=hidden;points=[[0,0.5],[1,0.5]];portConstraint=eastwest;rotatable=0;whiteSpace=wrap;html=1;" vertex="1" parent="2">
                    <mxGeometry y="144" width="276" height="27" as="geometry"/>
                </mxCell>
                <mxCell id="8" value="Organization" style="swimlane;fontStyle=0;childLayout=stackLayout;horizontal=1;startSize=30;horizontalStack=0;resizeParent=1;resizeParentMax=0;resizeLast=0;collapsible=1;marginBottom=0;whiteSpace=wrap;html=1;" vertex="1" parent="1">
                    <mxGeometry x="88" y="10" width="277" height="60" as="geometry"/>
                </mxCell>
                <mxCell id="9" value="Name: String" style="text;strokeColor=none;fillColor=none;align=left;verticalAlign=middle;spacingLeft=4;spacingRight=4;overflow=hidden;points=[[0,0.5],[1,0.5]];portConstraint=eastwest;rotatable=0;whiteSpace=wrap;html=1;" vertex="1" parent="8">
                    <mxGeometry y="30" width="277" height="30" as="geometry"/>
                </mxCell>
                <mxCell id="10" value="Category/role" style="swimlane;fontStyle=0;childLayout=stackLayout;horizontal=1;startSize=30;horizontalStack=0;resizeParent=1;resizeParentMax=0;resizeLast=0;collapsible=1;marginBottom=0;whiteSpace=wrap;html=1;" vertex="1" parent="1">
                    <mxGeometry x="481" y="79" width="277" height="60" as="geometry"/>
                </mxCell>
                <mxCell id="11" value="Name: String" style="text;strokeColor=none;fillColor=none;align=left;verticalAlign=middle;spacingLeft=4;spacingRight=4;overflow=hidden;points=[[0,0.5],[1,0.5]];portConstraint=eastwest;rotatable=0;whiteSpace=wrap;html=1;" vertex="1" parent="10">
                    <mxGeometry y="30" width="277" height="30" as="geometry"/>
                </mxCell>
                <mxCell id="12" value="categor_employees" style="swimlane;fontStyle=0;childLayout=stackLayout;horizontal=1;startSize=30;horizontalStack=0;resizeParent=1;resizeParentMax=0;resizeLast=0;collapsible=1;marginBottom=0;whiteSpace=wrap;html=1;" vertex="1" parent="1">
                    <mxGeometry x="425" y="191" width="277" height="90" as="geometry"/>
                </mxCell>
                <mxCell id="13" value="PK, FK&amp;nbsp;&lt;span style=&quot;white-space: pre;&quot;&gt;&#9;&lt;/span&gt;&lt;span style=&quot;white-space: pre;&quot;&gt;&#9;&lt;/span&gt;categoryId: number" style="text;strokeColor=none;fillColor=none;align=left;verticalAlign=middle;spacingLeft=4;spacingRight=4;overflow=hidden;points=[[0,0.5],[1,0.5]];portConstraint=eastwest;rotatable=0;whiteSpace=wrap;html=1;" vertex="1" parent="12">
                    <mxGeometry y="30" width="277" height="30" as="geometry"/>
                </mxCell>
                <mxCell id="14" value="PK, FK&amp;nbsp;&lt;span style=&quot;&quot;&gt;&#9;&lt;span style=&quot;white-space: pre;&quot;&gt;&#9;&lt;/span&gt;&lt;span style=&quot;white-space: pre;&quot;&gt;&#9;&lt;/span&gt;employee&lt;/span&gt;Id: number" style="text;strokeColor=none;fillColor=none;align=left;verticalAlign=middle;spacingLeft=4;spacingRight=4;overflow=hidden;points=[[0,0.5],[1,0.5]];portConstraint=eastwest;rotatable=0;whiteSpace=wrap;html=1;" vertex="1" parent="12">
                    <mxGeometry y="60" width="277" height="30" as="geometry"/>
                </mxCell>
                <mxCell id="15" value="Schedule" style="swimlane;fontStyle=0;childLayout=stackLayout;horizontal=1;startSize=30;horizontalStack=0;resizeParent=1;resizeParentMax=0;resizeLast=0;collapsible=1;marginBottom=0;whiteSpace=wrap;html=1;" vertex="1" parent="1">
                    <mxGeometry x="66" y="341" width="277" height="450" as="geometry"/>
                </mxCell>
                <mxCell id="16" value="MondayStart: Date" style="text;strokeColor=none;fillColor=none;align=left;verticalAlign=middle;spacingLeft=4;spacingRight=4;overflow=hidden;points=[[0,0.5],[1,0.5]];portConstraint=eastwest;rotatable=0;whiteSpace=wrap;html=1;" vertex="1" parent="15">
                    <mxGeometry y="30" width="277" height="30" as="geometry"/>
                </mxCell>
                <mxCell id="17" value="MondayEnd: Date" style="text;strokeColor=none;fillColor=none;align=left;verticalAlign=middle;spacingLeft=4;spacingRight=4;overflow=hidden;points=[[0,0.5],[1,0.5]];portConstraint=eastwest;rotatable=0;whiteSpace=wrap;html=1;" vertex="1" parent="15">
                    <mxGeometry y="60" width="277" height="30" as="geometry"/>
                </mxCell>
                <mxCell id="18" value="TuesdayStart: Date" style="text;strokeColor=none;fillColor=none;align=left;verticalAlign=middle;spacingLeft=4;spacingRight=4;overflow=hidden;points=[[0,0.5],[1,0.5]];portConstraint=eastwest;rotatable=0;whiteSpace=wrap;html=1;" vertex="1" parent="15">
                    <mxGeometry y="90" width="277" height="30" as="geometry"/>
                </mxCell>
                <mxCell id="19" value="TuesdayEnd: Date" style="text;strokeColor=none;fillColor=none;align=left;verticalAlign=middle;spacingLeft=4;spacingRight=4;overflow=hidden;points=[[0,0.5],[1,0.5]];portConstraint=eastwest;rotatable=0;whiteSpace=wrap;html=1;" vertex="1" parent="15">
                    <mxGeometry y="120" width="277" height="30" as="geometry"/>
                </mxCell>
                <mxCell id="20" value="WednesdayStart: Date" style="text;strokeColor=none;fillColor=none;align=left;verticalAlign=middle;spacingLeft=4;spacingRight=4;overflow=hidden;points=[[0,0.5],[1,0.5]];portConstraint=eastwest;rotatable=0;whiteSpace=wrap;html=1;" vertex="1" parent="15">
                    <mxGeometry y="150" width="277" height="30" as="geometry"/>
                </mxCell>
                <mxCell id="21" value="WednesdayEnd: Date" style="text;strokeColor=none;fillColor=none;align=left;verticalAlign=middle;spacingLeft=4;spacingRight=4;overflow=hidden;points=[[0,0.5],[1,0.5]];portConstraint=eastwest;rotatable=0;whiteSpace=wrap;html=1;" vertex="1" parent="15">
                    <mxGeometry y="180" width="277" height="30" as="geometry"/>
                </mxCell>
                <mxCell id="22" value="ThursdayStart: Date" style="text;strokeColor=none;fillColor=none;align=left;verticalAlign=middle;spacingLeft=4;spacingRight=4;overflow=hidden;points=[[0,0.5],[1,0.5]];portConstraint=eastwest;rotatable=0;whiteSpace=wrap;html=1;" vertex="1" parent="15">
                    <mxGeometry y="210" width="277" height="30" as="geometry"/>
                </mxCell>
                <mxCell id="23" value="ThursdayEnd: Date" style="text;strokeColor=none;fillColor=none;align=left;verticalAlign=middle;spacingLeft=4;spacingRight=4;overflow=hidden;points=[[0,0.5],[1,0.5]];portConstraint=eastwest;rotatable=0;whiteSpace=wrap;html=1;" vertex="1" parent="15">
                    <mxGeometry y="240" width="277" height="30" as="geometry"/>
                </mxCell>
                <mxCell id="24" value="FridayStart: Date" style="text;strokeColor=none;fillColor=none;align=left;verticalAlign=middle;spacingLeft=4;spacingRight=4;overflow=hidden;points=[[0,0.5],[1,0.5]];portConstraint=eastwest;rotatable=0;whiteSpace=wrap;html=1;" vertex="1" parent="15">
                    <mxGeometry y="270" width="277" height="30" as="geometry"/>
                </mxCell>
                <mxCell id="25" value="FridayEnd: Date" style="text;strokeColor=none;fillColor=none;align=left;verticalAlign=middle;spacingLeft=4;spacingRight=4;overflow=hidden;points=[[0,0.5],[1,0.5]];portConstraint=eastwest;rotatable=0;whiteSpace=wrap;html=1;" vertex="1" parent="15">
                    <mxGeometry y="300" width="277" height="30" as="geometry"/>
                </mxCell>
                <mxCell id="26" value="SaturdayStart: Date" style="text;strokeColor=none;fillColor=none;align=left;verticalAlign=middle;spacingLeft=4;spacingRight=4;overflow=hidden;points=[[0,0.5],[1,0.5]];portConstraint=eastwest;rotatable=0;whiteSpace=wrap;html=1;" vertex="1" parent="15">
                    <mxGeometry y="330" width="277" height="30" as="geometry"/>
                </mxCell>
                <mxCell id="27" value="&lt;span style=&quot;color: rgb(240, 240, 240); font-family: Helvetica; font-size: 12px; font-style: normal; font-variant-ligatures: normal; font-variant-caps: normal; font-weight: 400; letter-spacing: normal; orphans: 2; text-align: left; text-indent: 0px; text-transform: none; widows: 2; word-spacing: 0px; -webkit-text-stroke-width: 0px; background-color: rgb(42, 37, 47); text-decoration-thickness: initial; text-decoration-style: initial; text-decoration-color: initial; float: none; display: inline !important;&quot;&gt;SaturdayEnd: Date&lt;/span&gt;" style="text;strokeColor=none;fillColor=none;align=left;verticalAlign=middle;spacingLeft=4;spacingRight=4;overflow=hidden;points=[[0,0.5],[1,0.5]];portConstraint=eastwest;rotatable=0;whiteSpace=wrap;html=1;" vertex="1" parent="15">
                    <mxGeometry y="360" width="277" height="30" as="geometry"/>
                </mxCell>
                <mxCell id="28" value="SundayStart: Date" style="text;strokeColor=none;fillColor=none;align=left;verticalAlign=middle;spacingLeft=4;spacingRight=4;overflow=hidden;points=[[0,0.5],[1,0.5]];portConstraint=eastwest;rotatable=0;whiteSpace=wrap;html=1;" vertex="1" parent="15">
                    <mxGeometry y="390" width="277" height="30" as="geometry"/>
                </mxCell>
                <mxCell id="29" value="SundayEnd: Date" style="text;strokeColor=none;fillColor=none;align=left;verticalAlign=middle;spacingLeft=4;spacingRight=4;overflow=hidden;points=[[0,0.5],[1,0.5]];portConstraint=eastwest;rotatable=0;whiteSpace=wrap;html=1;" vertex="1" parent="15">
                    <mxGeometry y="420" width="277" height="30" as="geometry"/>
                </mxCell>
                <mxCell id="30" value="" style="curved=1;endArrow=ERzeroToOne;html=1;exitX=0;exitY=0.105;exitDx=0;exitDy=0;exitPerimeter=0;endFill=0;startArrow=ERzeroToMany;startFill=0;entryX=0;entryY=0.5;entryDx=0;entryDy=0;" edge="1" parent="1" source="2" target="9">
                    <mxGeometry width="50" height="50" relative="1" as="geometry">
                        <mxPoint x="617" y="97" as="sourcePoint"/>
                        <mxPoint x="513" y="64" as="targetPoint"/>
                        <Array as="points">
                            <mxPoint x="33" y="133"/>
                            <mxPoint x="-6" y="87"/>
                            <mxPoint x="33" y="47"/>
                        </Array>
                    </mxGeometry>
                </mxCell>
                <mxCell id="31" value="" style="curved=1;endArrow=ERone;html=1;entryX=1;entryY=0.5;entryDx=0;entryDy=0;exitX=0;exitY=0.25;exitDx=0;exitDy=0;endFill=0;startArrow=ERzeroToMany;startFill=0;" edge="1" parent="1" source="10" target="9">
                    <mxGeometry width="50" height="50" relative="1" as="geometry">
                        <mxPoint x="427" y="115.95500000000004" as="sourcePoint"/>
                        <mxPoint x="380" y="55" as="targetPoint"/>
                        <Array as="points">
                            <mxPoint x="371" y="116"/>
                            <mxPoint x="449" y="57"/>
                        </Array>
                    </mxGeometry>
                </mxCell>
                <mxCell id="32" value="" style="curved=1;endArrow=ERone;html=1;entryX=-0.011;entryY=-0.117;entryDx=0;entryDy=0;endFill=0;startArrow=ERzeroToMany;startFill=0;entryPerimeter=0;exitX=1.004;exitY=0.028;exitDx=0;exitDy=0;exitPerimeter=0;" edge="1" parent="1" source="15" target="14">
                    <mxGeometry width="50" height="50" relative="1" as="geometry">
                        <mxPoint x="369" y="331" as="sourcePoint"/>
                        <mxPoint x="335" y="292" as="targetPoint"/>
                        <Array as="points">
                            <mxPoint x="473" y="355"/>
                            <mxPoint x="355" y="241"/>
                        </Array>
                    </mxGeometry>
                </mxCell>
                <mxCell id="33" value="" style="curved=1;endArrow=ERone;html=1;entryX=1.011;entryY=0.061;entryDx=0;entryDy=0;exitX=0;exitY=0.25;exitDx=0;exitDy=0;endFill=0;startArrow=ERzeroToMany;startFill=0;entryPerimeter=0;" edge="1" parent="1" source="12" target="2">
                    <mxGeometry width="50" height="50" relative="1" as="geometry">
                        <mxPoint x="439" y="171" as="sourcePoint"/>
                        <mxPoint x="323" y="132" as="targetPoint"/>
                        <Array as="points">
                            <mxPoint x="326" y="217"/>
                            <mxPoint x="407" y="134"/>
                        </Array>
                    </mxGeometry>
                </mxCell>
                <mxCell id="34" value="" style="curved=1;endArrow=ERone;html=1;entryX=0.996;entryY=0.367;entryDx=0;entryDy=0;exitX=1.014;exitY=0.133;exitDx=0;exitDy=0;endFill=0;startArrow=ERzeroToMany;startFill=0;exitPerimeter=0;entryPerimeter=0;" edge="1" parent="1" source="12" target="10">
                    <mxGeometry width="50" height="50" relative="1" as="geometry">
                        <mxPoint x="883" y="167" as="sourcePoint"/>
                        <mxPoint x="767" y="128" as="targetPoint"/>
                        <Array as="points">
                            <mxPoint x="744" y="209"/>
                            <mxPoint x="817" y="196"/>
                            <mxPoint x="822" y="131"/>
                            <mxPoint x="812" y="101"/>
                        </Array>
                    </mxGeometry>
                </mxCell>
            </root>
        </mxGraphModel>
    </diagram>
</mxfile>